<svg width="18" height="18" viewBox="0 0 18 18" fill="none" xmlns="http://www.w3.org/2000/svg">
<g clip-path="url(#clip0_5314_131)">
<path d="M8.98647 0.671989C6.9401 0.667942 4.9625 1.41517 3.42441 2.77361C1.88632 4.13205 0.893324 6.00842 0.631578 8.05099C0.369831 10.0936 0.857302 12.1621 2.00261 13.8688C3.14792 15.5755 4.87243 16.8033 6.85286 17.3219V15.3536L6.44646 15.3109L5.84533 15.2513L5.49819 15.2087C5.33489 15.2074 5.17356 15.1726 5.02406 15.1064C4.74708 14.9631 4.52413 14.7328 4.38906 14.4503C4.32548 14.284 4.24609 14.1242 4.15199 13.9732C3.95055 13.6559 3.7054 13.369 3.42385 13.1211C3.39774 13.0956 3.37697 13.0652 3.36278 13.0315C3.3486 12.9979 3.34129 12.9617 3.34129 12.9251C3.34129 12.8885 3.3486 12.8523 3.36278 12.8187C3.37697 12.785 3.39774 12.7545 3.42385 12.7291C3.46593 12.6805 3.52292 12.6474 3.58579 12.635C3.64867 12.6227 3.71384 12.6318 3.77099 12.6609C4.13302 12.8578 4.464 13.1076 4.75312 13.4023C4.91548 13.5623 5.06024 13.7394 5.18493 13.9306C5.24974 14.0034 5.3356 14.0541 5.43046 14.0754H5.59979H5.86226L6.44646 13.9902L7.01373 13.9306C7.19284 13.4121 7.5384 12.9684 7.99587 12.6695C7.52718 12.6117 7.06506 12.509 6.6158 12.3627C5.85438 12.1663 5.18455 11.7095 4.72113 11.0705C4.25771 10.4316 4.02956 9.65029 4.07579 8.86059C4.08576 8.06689 4.38737 7.305 4.92246 6.72184C4.71599 6.01552 4.68979 5.26822 4.84626 4.54901C4.85902 4.50143 4.88097 4.45686 4.91086 4.41783C4.94075 4.3788 4.97799 4.34608 5.02045 4.32155C5.06291 4.29702 5.10976 4.28115 5.15833 4.27485C5.20689 4.26856 5.2562 4.27196 5.30346 4.28486C6.01821 4.41843 6.67129 4.77992 7.16613 5.31589C8.54212 4.86777 10.0235 4.86777 11.3995 5.31589C11.8832 4.78777 12.5203 4.42692 13.2198 4.28486C13.3152 4.26108 13.416 4.27528 13.5011 4.3245C13.5863 4.37372 13.6493 4.45415 13.677 4.54901C13.831 5.23562 13.8136 5.94994 13.6262 6.62811C14.2234 7.21739 14.567 8.01903 14.583 8.86059C14.583 10.7267 13.4061 12.269 10.6544 12.6609C11.0027 12.8827 11.2895 13.1898 11.4879 13.5534C11.6863 13.917 11.7899 14.3252 11.7889 14.74V17.1259C13.6697 16.4684 15.2575 15.1605 16.2698 13.435C17.282 11.7096 17.653 9.67856 17.3166 7.70362C16.9802 5.72868 15.9584 3.93797 14.4329 2.65031C12.9075 1.36264 10.9774 0.661602 8.98647 0.671989Z" fill="white"/>
</g>
<defs>
<clipPath id="clip0_5314_131">
<rect width="18" height="18" fill="white"/>
</clipPath>
</defs>
</svg>
